<svg width="425" height="420" viewBox="0 0 425 420" fill="none" xmlns="http://www.w3.org/2000/svg">
<path fill-rule="evenodd" clip-rule="evenodd" d="M223.379 7.18253C246.511 12.223 265.622 27.9109 288.504 33.99C314.086 40.7864 343.02 32.8284 366.431 45.1881C390.208 57.7411 411.464 78.6262 420.826 103.85C430.232 129.19 421.253 157.369 418.031 184.209C415.194 207.849 405.384 229.71 402.877 253.387C399.911 281.397 418.722 314.632 401.834 337.161C384.969 359.66 346.044 347.153 321.858 361.472C298.252 375.447 290.445 412.244 263.828 418.864C237.699 425.363 213.331 402.171 187.402 394.915C163.317 388.175 133.246 394.519 115.138 377.253C96.0326 359.036 109.516 321.052 90.6128 302.624C67.2015 279.803 8.10083 297.546 0.689115 265.688C-6.97127 232.761 51.4995 218.943 63.8212 187.465C72.1517 166.183 55.3822 142.47 57.8174 119.743C60.6384 93.416 63.2165 65.0477 79.199 43.9496C95.1562 22.8848 120.665 9.52092 146.258 2.99464C171.42 -3.42192 198.007 1.65406 223.379 7.18253Z" fill="#21B44E" fill-opacity="0.05"/>
</svg>
