<svg width="20" height="20" viewBox="0 0 20 20" fill="none" xmlns="http://www.w3.org/2000/svg">
<rect width="20" height="20" fill="white"/>
<path d="M0 0H20V20H0V0Z" fill="white"/>
<path d="M4.77242 6.68894C4.78065 6.60761 4.76961 6.52549 4.74019 6.44922C4.71077 6.37296 4.6638 6.30469 4.60308 6.24997L3.34843 4.73858V4.51294H7.24378L10.2545 11.1161L12.9017 4.51294H16.615V4.73868L15.5424 5.76709C15.497 5.80168 15.4619 5.84799 15.4409 5.90103C15.4199 5.95408 15.4138 6.01185 15.4232 6.06812V13.6244C15.4138 13.6807 15.4199 13.7385 15.4409 13.7915C15.4619 13.8446 15.497 13.8909 15.5424 13.9255L16.5898 14.9539V15.1796H11.321V14.9539L12.4061 13.9003C12.5128 13.7937 12.5128 13.7624 12.5128 13.5994V7.49161L9.49566 15.1545H9.08786L5.57528 7.49161V12.6274C5.56084 12.734 5.57084 12.8424 5.60453 12.9445C5.63822 13.0467 5.69472 13.1398 5.76974 13.2168L7.18101 14.9287V15.1545H3.1792V14.9288L4.59047 13.2168C4.66489 13.1397 4.72013 13.0462 4.75173 12.9438C4.78334 12.8414 4.79042 12.733 4.77242 12.6274V6.68894Z" fill="#455A64"/>
</svg>
