<svg width="414" height="414" viewBox="0 0 414 414" fill="none" xmlns="http://www.w3.org/2000/svg">
<g clip-path="url(#clip0_36_989)">
<path d="M201.36 238.268H160.966C159.654 238.268 158.59 239.328 158.59 240.635V246.555C158.59 247.863 159.654 248.923 160.966 248.923H201.36C202.673 248.923 203.737 247.863 203.737 246.555V240.635C203.737 239.328 202.673 238.268 201.36 238.268Z" fill="#AFB9C5"/>
<path fill-rule="evenodd" clip-rule="evenodd" d="M170.471 203.934C175.571 187.46 178.429 170.096 179.045 151.842H182.351H184.47C185.085 170.096 187.944 187.46 193.044 203.934H200.766C210.937 203.934 219.181 212.15 219.181 222.285C219.181 232.419 210.937 240.635 200.766 240.635H161.56C151.39 240.635 143.146 232.419 143.146 222.285C143.146 212.15 151.39 203.934 161.56 203.934H170.471Z" fill="#DDE3E9"/>
<path fill-rule="evenodd" clip-rule="evenodd" d="M139.133 69.7707C152.747 68.4458 166.361 67.7833 179.975 67.7833C193.59 67.7833 207.204 68.4458 220.818 69.7707L226.31 163.838C210.865 165.312 195.42 166.049 179.975 166.049C164.531 166.049 149.086 165.312 133.641 163.838L139.133 69.7707Z" fill="#C5CFD6"/>
<path fill-rule="evenodd" clip-rule="evenodd" d="M131.265 248.923H229.874H254.823V372.05H229.874V274.969H131.265V372.05H106.316V248.923H131.265Z" fill="#F2F2F2"/>
<path opacity="0.2" fill-rule="evenodd" clip-rule="evenodd" d="M243.914 104.431C244.805 103.99 245.993 104.502 245.497 105.667C244.966 106.914 243.003 106.93 241.895 106.905C242.006 106.899 242.363 105.755 242.485 105.582C242.846 105.072 243.366 104.703 243.914 104.431ZM233.651 127.163C233.336 127.432 233.626 127.188 233.651 127.163V127.163ZM244.949 110.224C245.482 110.626 245.507 111.336 245.072 111.818C244.553 112.391 243.606 112.37 242.899 112.315C242.579 112.29 240.872 112.155 241.277 111.879C241.246 111.891 241.181 111.919 241.111 111.958C241.074 112.093 241.034 112.227 240.993 112.361C241.003 112.367 241.012 112.373 241.023 112.379C241.011 112.374 241.003 112.369 240.993 112.364C240.581 113.703 239.996 114.979 239.23 116.173C239.517 116.061 239.813 115.977 240.114 115.939C241.005 115.828 242.878 116.51 241.881 117.682C240.925 118.805 239.439 117.601 238.355 117.436C237.302 118.886 236.142 120.275 234.926 121.619C235.001 121.642 235.066 121.69 235.104 121.764C235.591 121.52 236.099 121.17 236.55 121.075C237.202 120.939 238.537 120.855 239.028 121.431C239.633 122.138 238.984 122.713 238.269 122.849C237.232 123.046 235.875 122.547 234.878 122.209C234.764 122.229 234.639 122.197 234.565 122.106C234.543 122.099 234.521 122.092 234.499 122.085C233.268 123.422 231.99 124.715 230.719 125.979C230.733 125.978 230.746 125.978 230.76 125.977C231.092 125.762 231.447 125.586 231.832 125.494C232.723 125.279 233.772 125.277 234.494 125.913C235.214 126.547 235.469 127.655 234.723 128.367C233.231 129.793 231.036 126.546 230.283 126.41C228.992 127.682 227.627 128.87 226.241 130.034C226.398 129.986 226.56 129.951 226.726 129.936C228.086 129.806 231.275 131.45 229.606 133.07C228.152 134.481 226.471 131.767 225.3 130.818C223.994 131.903 222.68 132.98 221.403 134.1C222.099 133.917 222.772 133.89 223.518 134.112C224.29 134.342 225.536 134.917 225.047 135.947C224.55 136.994 223.054 136.519 222.275 136.187C221.85 136.006 220.998 135.394 220.25 135.137C218.213 137.037 216.448 139.129 215.111 141.593C214.277 143.132 213.643 144.776 213.197 146.465C212.912 147.543 212.351 149.354 212.463 150.758C211.93 147.949 212.898 144.575 213.94 142.064C214.898 139.755 216.332 137.728 218.01 135.902C217.59 134.652 214.047 132.85 216.166 131.687C217.292 131.072 218.443 132.091 218.689 133.17C218.857 133.912 218.599 134.845 218.326 135.565C218.854 135.008 219.403 134.47 219.969 133.949C220.75 133.23 221.551 132.531 222.359 131.841C221.028 130.607 219.771 127.077 221.556 126.499C224.191 125.647 222.92 130.464 222.736 131.366C222.683 131.369 222.643 131.354 222.613 131.32C222.628 131.403 222.645 131.491 222.666 131.58C224.212 130.267 225.782 128.979 227.3 127.634C227.163 127.535 226.946 127.153 226.775 126.951C226.39 126.493 226.022 126.016 225.752 125.481C225.327 124.635 224.917 123.286 226.046 122.788C227.274 122.246 227.856 123.771 227.864 124.681C227.87 125.311 227.696 125.909 227.605 126.526C227.577 126.718 227.685 127.586 227.42 127.213C227.432 127.35 227.434 127.45 227.428 127.52C227.7 127.278 227.971 127.032 228.239 126.785C228.227 126.754 228.218 126.72 228.216 126.681C228.201 126.41 228.478 126.305 228.672 126.384C229.026 126.051 229.377 125.715 229.722 125.371C230.453 124.643 231.195 123.894 231.931 123.129C231.771 122.994 231.835 122.806 231.686 122.662C231.537 122.519 231.243 122.44 231.068 122.307C230.627 121.971 230.262 121.483 229.997 121.002C229.561 120.208 228.998 118.541 230.274 118.161C231.588 117.77 232.255 119.374 232.339 120.377C232.355 120.572 232.207 122.323 232.094 122.959C233.456 121.538 234.797 120.063 236.011 118.563C235.643 118.56 234.6 117.816 234.389 117.613C233.875 117.118 233.058 116.023 233.96 115.444C234.762 114.929 235.751 115.673 236.093 116.396C236.15 116.515 236.348 117.624 236.363 118.121C236.866 117.485 237.345 116.845 237.791 116.203C238.089 115.777 238.367 115.339 238.627 114.891C238.564 114.856 238.505 114.795 238.45 114.719C237.112 114.496 235.408 112.435 236.979 111.717C237.728 111.376 238.539 112.079 238.905 112.656C238.98 112.773 239.101 113.366 239.2 113.834C239.948 112.352 240.521 110.783 240.956 109.175C240.84 109.146 240.741 109.058 240.728 108.907C240.079 108.542 239.566 108.238 239.113 107.535C238.832 107.098 238.325 106.101 239.153 105.858C240.23 105.542 240.906 107.166 240.994 107.966C241.004 108.059 241.003 108.329 241 108.577C241.037 108.572 241.075 108.572 241.112 108.579C241.36 107.583 241.558 106.574 241.715 105.564C241.128 105.377 241.027 102.328 241.419 101.894C242.294 100.922 242.911 102.325 242.864 103.068C242.808 103.943 242.406 104.739 241.928 105.446C241.877 105.52 241.891 105.517 241.878 105.413C241.871 105.464 241.853 105.502 241.827 105.53C241.852 105.99 241.899 106.462 241.876 106.869C241.809 108.037 241.671 109.211 241.471 110.363C241.422 110.644 241.366 110.921 241.303 111.197C241.776 110.799 242.413 110.446 242.663 110.335C243.31 110.048 244.307 109.739 244.949 110.224ZM212.357 150.647C212.388 151.022 212.481 151.364 212.663 151.645C212.529 151.324 212.429 150.99 212.357 150.647Z" fill="#C1DEE2"/>
<g opacity="0.5">
<path opacity="0.5" fill-rule="evenodd" clip-rule="evenodd" d="M235.793 142.652C236.859 141.135 238.839 137.284 240.34 136.742C241.307 136.393 241.025 140.003 241.037 140.692C241.084 143.356 240.824 146.003 240.503 148.644C239.924 153.408 238.032 157.65 235.437 161.705C234.102 163.791 232.536 165.903 230.366 167.204C229.368 167.804 228.166 167.904 227.18 168.421C226.032 169.022 226.657 168.536 226.14 169.729C225.421 171.386 225.191 173.524 224.859 175.291C223.332 183.407 219.635 226.309 220.276 234.564C220.333 235.295 219.31 235.47 219.258 234.577C218.987 229.841 221.336 197.042 222.521 186.316C223.707 175.59 224.906 166.114 226.108 162.403C227.567 157.901 230.202 152.487 232.396 148.288C233.415 146.338 234.525 144.455 235.793 142.652Z" fill="#69A1AC"/>
<path opacity="0.5" fill-rule="evenodd" clip-rule="evenodd" d="M243.71 195.259C246.486 193.227 249.49 197.062 246.978 199.094C245.59 200.218 244.138 199.818 243.321 198.882C242.79 199.527 242.294 200.201 241.817 200.771C240.363 202.506 238.989 204.283 237.676 206.101C234.948 209.878 232.611 213.869 230.167 217.787C227.755 221.654 225.362 225.54 223.176 229.504C221.324 232.863 218.855 236.815 218.221 240.497C219.183 232.688 222.834 225.181 227.181 218.296C231.493 211.468 236.441 204.011 243.118 198.622C242.438 197.626 242.419 196.203 243.71 195.259Z" fill="#C1DEE2"/>
<path opacity="0.5" fill-rule="evenodd" clip-rule="evenodd" d="M191.039 176.212C192.592 176.515 195.13 180.019 196.411 181.354C197.932 182.941 199.313 184.632 200.614 186.403C203.415 190.217 205.921 194.271 208.051 198.499C211.524 205.392 214.307 212.468 216.326 219.974C217.562 224.568 218.362 229.33 218.837 234.059C218.926 234.951 219.864 241.827 218.513 242.012C217.298 242.179 217.673 236.791 217.614 236.058C216.952 227.79 214.966 219.745 212.205 211.952C211.604 210.254 211.045 208.175 210.083 206.647C209.39 205.547 210.078 205.93 208.861 205.514C207.815 205.156 206.624 205.244 205.554 204.806C203.229 203.855 201.367 202.009 199.735 200.152C196.563 196.543 194.05 192.639 192.739 188.015C192.013 185.451 191.345 182.873 190.974 180.23C190.878 179.547 190.038 176.017 191.039 176.212Z" fill="#69A1AC"/>
<path opacity="0.5" fill-rule="evenodd" clip-rule="evenodd" d="M197.168 117.915C203.019 128.033 207.827 139.148 210.932 150.406C212.813 157.226 214.128 164.226 215.435 171.174C217.459 181.933 219.373 192.692 219.918 203.642C220.465 214.655 221.549 227.358 217.932 237.966C219.739 227.196 218.019 215.733 217.714 204.896C217.569 199.723 217.147 194.6 216.594 189.457C216.057 184.468 215.18 179.503 214.363 174.553C213.965 172.142 213.547 169.735 213.122 167.329C212.995 166.612 212.941 164.482 212.485 163.991C212.025 163.498 209.681 163.297 208.945 162.935C207.462 162.205 206.068 161.169 204.834 160.074C202.469 157.976 200.411 155.234 198.786 152.531C195.028 146.277 193.526 138.644 193.602 131.401C193.616 129.995 195.885 114.851 194.974 114.642C195.028 114.578 195.08 114.512 195.129 114.443C195.819 115.595 196.496 116.754 197.168 117.915Z" fill="#89C5CC"/>
<path opacity="0.5" fill-rule="evenodd" clip-rule="evenodd" d="M260.319 154.408C260.409 154.278 260.997 153.375 260.701 153.433C261.303 153.315 259.872 154.429 261.373 153.745C260.661 154.417 261.072 155.288 261.081 156.192C261.097 157.658 260.851 159.113 260.574 160.548C260.136 162.817 259.484 165.023 258.538 167.133C256.475 171.731 252.972 176.158 248.813 179.032C246.76 180.452 244.748 180.935 242.407 181.589C240.928 182.001 240.81 182.764 240.025 184.195C238.391 187.176 236.786 190.146 235.344 193.227C233.623 196.907 231.952 200.59 230.376 204.334C225.067 216.946 220.746 230.013 218.476 243.535C218.421 235.566 220.269 227.359 222.601 219.764C224.3 214.23 226.511 208.895 228.87 203.615C229.441 202.336 230.307 200.69 230.55 199.278C230.72 198.288 230.2 197.337 229.962 196.294C229.035 192.235 229.101 187.687 229.916 183.606C230.814 179.106 233.411 177.017 237.803 176.379C239.41 176.146 241.452 176.232 242.925 175.549C244.53 174.805 245.192 172.36 246.105 170.79C248.556 166.574 251.469 162.531 254.813 158.979C255.739 157.995 256.735 157.087 257.791 156.246C258.458 155.715 259.865 155.062 260.319 154.408Z" fill="#89C5CC"/>
<path opacity="0.5" fill-rule="evenodd" clip-rule="evenodd" d="M211.061 234.929H226.651C227.352 234.929 227.92 235.495 227.92 236.194C227.92 236.256 227.915 236.318 227.906 236.379L226.701 244.526C226.334 247.01 224.197 248.85 221.679 248.85H216.033C213.515 248.85 211.378 247.01 211.01 244.526L209.805 236.379C209.703 235.687 210.182 235.044 210.876 234.942C210.937 234.933 210.999 234.929 211.061 234.929Z" fill="#C1DEE2"/>
</g>
</g>
<path fill-rule="evenodd" clip-rule="evenodd" d="M81.5426 131.011C77.5974 128.32 74.4115 124.583 73.4603 119.698C70.7197 105.62 90.9653 103.479 96.6217 109.445C102.278 115.41 106.591 133.218 102.043 135.766C100.229 136.783 95.7519 136.672 90.8505 135.278L98.4995 153.136L82.8482 157.309L81.5426 131.011Z" fill="#B28B67"/>
<path fill-rule="evenodd" clip-rule="evenodd" d="M86.9714 117.735C89.7939 125.837 92.4911 129.545 95.063 128.858C98.921 127.829 101.542 124.532 103.235 124.081C104.469 123.751 104.605 125.353 104.092 126.704C103.668 127.819 100.624 129.596 101.014 131.045C101.404 132.494 103.699 130.68 103.93 131.54C104.313 132.961 105.488 135.512 102.995 136.177C100.471 136.851 92.9907 137.871 90.7536 134.497C89.3099 132.319 87.459 127.501 85.2009 120.044C85.043 120.067 84.8847 120.099 84.7268 120.141C82.5646 120.718 81.2784 122.92 81.8541 125.059C82.1463 126.145 82.8621 127.006 83.7791 127.515C83.2136 129.022 82.554 130.614 81.7576 132.288C76.6891 130.86 71.4026 124.131 73.7123 115.696C73.9316 111.807 76.0916 109.185 79.0107 107.456C81.2837 105.715 83.9068 104.887 86.319 104.923C90.8132 104.124 95.0933 104.403 96.4171 104.893C97.5246 109.009 97.0471 110.445 90.1337 112.174C88.6799 113.51 87.789 115.379 86.9714 117.735Z" fill="#191847"/>
<path fill-rule="evenodd" clip-rule="evenodd" d="M90.4458 211.717L123.621 295.124L145.871 365.637H154.657L120.641 211.717L90.4458 211.717Z" fill="#997659"/>
<path fill-rule="evenodd" clip-rule="evenodd" d="M83.7656 211.717C83.4123 241.027 78.2604 280.488 77.4373 282.315C76.8886 283.533 57.9454 299.022 20.6079 328.782L26.6595 335.215C70.7143 309.699 93.7611 295.24 95.7997 291.837C98.8577 286.732 108.813 239.757 116.806 211.717H83.7656Z" fill="#B28B67"/>
<path fill-rule="evenodd" clip-rule="evenodd" d="M19.758 326.621C17.7261 327.337 16.3264 328.016 15.559 328.658C14.6256 329.439 13.3941 330.734 11.8645 332.542C12.7735 333.622 20.943 343.331 36.3729 361.667C39.5178 360.325 40.5042 358.755 39.332 356.957C38.1598 355.159 37.2004 353.654 36.454 352.44L31.1118 333.842C31.009 333.484 30.6348 333.277 30.276 333.38C30.2698 333.381 30.2637 333.383 30.2577 333.385L27.4097 334.285C25.4334 333.366 24.0482 332.435 23.254 331.491C22.6087 330.724 22.0281 329.406 21.5119 327.535L21.5119 327.535C21.3139 326.817 20.5698 326.395 19.8501 326.593C19.8191 326.601 19.7884 326.611 19.758 326.621Z" fill="#E4E4E4"/>
<path fill-rule="evenodd" clip-rule="evenodd" d="M142.273 362.448C141.517 364.461 141.139 365.967 141.139 366.966C141.139 368.182 141.342 369.955 141.748 372.287C143.162 372.287 155.87 372.287 179.871 372.287C180.862 369.021 180.29 367.258 178.155 366.998C176.021 366.737 174.248 366.502 172.836 366.292L155.117 358.415C154.776 358.264 154.376 358.416 154.224 358.756C154.222 358.762 154.219 358.768 154.217 358.774L153.078 361.529C151.102 362.448 149.496 362.908 148.261 362.908C147.257 362.908 145.871 362.504 144.103 361.695L144.103 361.695C143.424 361.385 142.622 361.682 142.31 362.359C142.297 362.388 142.285 362.418 142.273 362.448Z" fill="#E4E4E4"/>
<path fill-rule="evenodd" clip-rule="evenodd" d="M112.751 358.374L154.525 353.871L123.566 211.717H86.1499L112.751 358.374Z" fill="#69A1AC"/>
<path fill-rule="evenodd" clip-rule="evenodd" d="M29.249 318.404L56.6505 350.622C85.5119 319.31 102.338 298.879 107.129 289.329C111.92 279.779 116.227 253.908 120.05 211.717H77.9269C75.8387 248.835 74.4311 268.258 73.7041 269.985C72.9771 271.712 58.1587 287.852 29.249 318.404Z" fill="#89C5CC"/>
<path fill-rule="evenodd" clip-rule="evenodd" d="M142.168 196.24L166.139 207.997C172.17 208.53 177.321 209.605 181.591 211.224C182.65 211.89 184.049 213.369 180.213 213.744C176.377 214.119 172.36 214.685 172.065 216.059C171.77 217.433 174.331 218.564 173.582 220.479C173.083 221.756 169.246 219.448 162.072 213.555L139.516 208.586L142.168 196.24ZM60.7541 211.082L74.6713 208.695C70.9609 237.737 68.9126 253.16 68.5266 254.964C67.658 259.025 71.9393 264.226 73.8824 267.084C69.7008 269.898 68.8612 262.342 63.6042 265.993C58.8058 269.326 55.6053 274.399 48.9118 271.759C48.0889 271.434 46.972 269.864 48.7004 268.18C53.0064 263.986 59.0291 256.91 59.6423 254.822C60.4784 251.974 60.849 237.394 60.7541 211.082Z" fill="#B28B67"/>
<path fill-rule="evenodd" clip-rule="evenodd" d="M90.0476 146.224L95.6271 144.234C120.216 158.801 135.216 192.445 164.681 206.49L159.757 215.348C113.378 217.734 94.5263 176.794 90.0476 146.224Z" fill="#E87613"/>
<path fill-rule="evenodd" clip-rule="evenodd" d="M77.6756 222.439C100.742 218.391 117.71 215.413 128.578 213.505C130.904 213.097 129.874 209.839 129.24 208.215C121.919 189.471 103.061 171.191 98.163 143.541L83.0753 143.831C74.3671 165.359 74.3979 189.978 77.6756 222.439Z" fill="#DDE3E9"/>
<path fill-rule="evenodd" clip-rule="evenodd" d="M68.1054 166.121C65.8653 165.886 63.9253 164.763 62.2854 162.751C55.216 154.076 56.2161 148.442 61.6424 145.695C67.0687 142.948 72.8177 145.636 81.9544 144.032C82.4514 143.945 82.912 143.896 83.3363 143.885L87.9785 143.339C109.027 185.408 117.909 214.381 114.625 230.259L74.5647 237.291C73.1649 243.204 71.7128 248.227 70.2085 252.36L59.2928 254.276C52.4219 221.468 55.3594 192.083 68.1054 166.121Z" fill="#FF9B21"/>
<path fill-rule="evenodd" clip-rule="evenodd" d="M79.2373 212.961C82.3519 223.209 85.7458 230.448 89.4189 234.677L74.5515 237.287C76.1844 230.389 77.7464 222.28 79.2373 212.961Z" fill="black" fill-opacity="0.1"/>
<path fill-rule="evenodd" clip-rule="evenodd" d="M277.988 147.161C282.815 144.154 286.416 140.277 286.775 135.627C287.809 122.228 260.01 122.883 253.49 129.147C246.97 135.411 244.516 152.471 251.154 154.239C253.801 154.945 259.838 154.258 266.205 152.328L259.247 169.869L281.216 171.696L277.988 147.161Z" fill="#915B3C"/>
<path fill-rule="evenodd" clip-rule="evenodd" d="M267.409 122.466C270.364 122.385 278.202 122.812 279.64 122.932C280.559 123.008 281.529 123.233 282.177 122.707C282.708 122.275 282.688 121.469 282.92 120.936C283.189 120.318 283.521 119.712 283.856 119.109C284.808 117.392 286.068 115.788 287.691 114.318C290.735 111.561 294.829 109.544 299.711 108.578C305.102 107.511 310.958 107.651 316.411 108.412C322.246 109.226 327.342 110.989 332.682 112.694C337.77 114.318 343.24 115.246 348.891 115.129C354.585 115.012 359.18 113.31 364.246 111.752C369.433 110.158 375.184 109.312 380.834 110.086C386.108 110.809 390.746 112.708 394.788 115.066C398.57 117.272 401.563 119.797 402.91 123.111C404.359 126.677 403.682 130.402 399.744 133.12C394.035 137.058 384.695 137.422 377.115 136.678C372.731 136.248 368.512 135.345 364.541 134.01C359.245 132.229 354.867 129.594 350.018 127.348C347.742 126.294 345.357 125.385 342.815 124.662C340.349 123.96 337.873 123.527 335.37 124.381C332.722 125.284 330.332 126.19 327.407 126.65C324.6 127.091 321.688 127.227 318.83 126.974C313.267 126.481 307.992 124.849 302.728 123.611C298.435 122.602 293.833 121.569 289.226 121.813C287.303 121.914 284.467 122.218 283.55 123.484C294.699 125.834 297.444 135.769 292.957 142.521C290.536 146.165 279.304 149.727 275.61 147.398C273.269 145.922 275.129 144.395 276.337 143.386C278.649 141.452 279.798 138.817 276.486 137.061C273.628 135.547 269.843 138.264 269.782 138.255C268.943 138.139 262.125 134.72 257.82 130.2C252.803 129.986 252.451 127.697 253.97 125.975C255.49 124.253 263.327 122.578 267.409 122.466Z" fill="#191847"/>
<path fill-rule="evenodd" clip-rule="evenodd" d="M273.703 222.825L239.911 301.763L224.017 361.031H208.064L223.989 222.825H273.703Z" fill="#784931"/>
<path fill-rule="evenodd" clip-rule="evenodd" d="M288.89 222.825C286.532 263.833 287.462 286.2 287.989 289.925C288.517 293.651 291.513 318.604 311.928 362.281H295.336C268.299 320.38 258.861 295.428 255.76 289.925C252.659 284.423 243.501 262.057 230.13 222.825H288.89Z" fill="#915B3C"/>
<path fill-rule="evenodd" clip-rule="evenodd" d="M274.428 222.825C265.638 249.988 250.436 293.346 228.82 352.901H205.487C203.764 291.774 211.095 251.542 223.791 222.825H274.428Z" fill="#69A1AC"/>
<path fill-rule="evenodd" clip-rule="evenodd" d="M289.007 222.825C286.698 263.833 292.683 304.233 311.221 353.539H286.326C259.24 312.263 239.826 272.062 226.558 222.825H289.007Z" fill="#C5CFD6"/>
<path fill-rule="evenodd" clip-rule="evenodd" d="M314.293 370.411L313.377 360.405C308.017 361.468 301.304 361.051 293.236 359.154C284.562 363.32 273.642 366.164 260.477 367.687C259.472 367.803 258.797 368.449 258.968 369.13C258.979 369.174 258.994 369.218 259.012 369.261L260.278 372.287H293.236H312.462L314.293 370.411Z" fill="#191847"/>
<path fill-rule="evenodd" clip-rule="evenodd" d="M227.578 370.411L226.662 360.405C221.302 361.468 214.588 361.051 206.521 359.154C197.847 363.32 186.927 366.164 173.761 367.687C172.757 367.803 172.082 368.449 172.253 369.13C172.264 369.174 172.279 369.218 172.297 369.261L173.562 372.287H206.521H225.747L227.578 370.411Z" fill="#191847"/>
<path fill-rule="evenodd" clip-rule="evenodd" d="M197.53 208.625L164.797 219.593C156.564 220.092 149.532 221.097 143.702 222.607C142.256 223.228 140.345 224.607 145.581 224.954C150.817 225.302 156.301 225.828 156.703 227.108C157.105 228.388 153.607 229.443 154.628 231.227C155.309 232.417 160.548 230.264 170.346 224.769L201.141 220.128L197.53 208.625ZM308.659 222.415L289.662 220.198C294.706 247.257 297.491 261.628 298.017 263.31C299.199 267.093 293.351 271.942 290.696 274.606C296.402 277.226 297.554 270.185 304.728 273.584C311.276 276.687 315.641 281.413 324.781 278.949C325.904 278.646 327.43 277.183 325.072 275.615C319.197 271.708 310.98 265.118 310.145 263.172C309.005 260.519 308.51 246.933 308.659 222.415Z" fill="#915B3C"/>
<path fill-rule="evenodd" clip-rule="evenodd" d="M268.751 161.965L261.135 160.113C227.549 173.703 207.044 205.069 166.801 218.175L173.518 226.429C236.843 228.629 262.614 190.461 268.751 161.965Z" fill="#2F4858"/>
<path fill-rule="evenodd" clip-rule="evenodd" d="M285.577 232.992C254.084 229.229 230.918 226.462 216.08 224.689C212.904 224.31 214.312 221.272 215.179 219.758C225.19 202.283 250.952 185.233 257.661 159.457L278.262 159.72C290.137 179.783 290.077 202.731 285.577 232.992Z" fill="#DDE3E9"/>
<path fill-rule="evenodd" clip-rule="evenodd" d="M298.673 180.486C301.732 180.266 304.382 179.218 306.623 177.342C316.283 169.252 314.922 164.001 307.514 161.443C300.106 158.885 292.254 161.393 279.778 159.902C279.1 159.821 278.471 159.776 277.891 159.766L271.553 159.259C242.779 198.486 230.629 225.498 235.102 240.298L289.8 246.833C291.708 252.344 293.687 257.026 295.738 260.878L310.642 262.659C320.049 232.072 316.059 204.681 298.673 180.486Z" fill="#2F4858"/>
<path fill-rule="evenodd" clip-rule="evenodd" d="M283.426 224.158C279.165 233.712 274.526 240.462 269.507 244.406L289.806 246.831C287.582 240.402 285.455 232.844 283.426 224.158L283.426 224.158Z" fill="black" fill-opacity="0.1"/>
<defs>
<clipPath id="clip0_36_989">
<rect width="148.508" height="304.267" fill="white" transform="translate(106.316 67.7833)"/>
</clipPath>
</defs>
</svg>
