<svg width="6" height="10" viewBox="0 0 6 10" fill="none" xmlns="http://www.w3.org/2000/svg">
<path fill-rule="evenodd" clip-rule="evenodd" d="M0.199917 9.22196C0.420826 9.40445 0.7781 9.40445 0.998464 9.22196L5.66919 5.35502C5.77374 5.26978 5.85699 5.16736 5.91388 5.05366C5.97077 4.93995 6.00009 4.81731 6.00009 4.69358C6.00009 4.56985 5.97077 4.44743 5.91388 4.33373C5.85699 4.22003 5.77374 4.11761 5.66919 4.03237L0.964648 0.136868C0.857877 0.0498112 0.716484 0.00088082 0.569182 1.17507e-05C0.42188 -0.000857319 0.279709 0.0465098 0.171552 0.132299C0.117973 0.174664 0.0751075 0.225938 0.0456007 0.283093C0.016094 0.340247 0.000578329 0.401995 1.58622e-05 0.464502C-0.000546605 0.527009 0.0138552 0.58883 0.0423298 0.646368C0.0708045 0.703907 0.112741 0.75592 0.165551 0.79899L4.47136 4.3632C4.52368 4.40583 4.56534 4.45713 4.59381 4.514C4.62228 4.57087 4.63697 4.63191 4.63697 4.69381C4.63697 4.7557 4.62228 4.81697 4.59381 4.87385C4.56534 4.93072 4.52368 4.98202 4.47136 5.02464L0.199917 8.56075C0.147613 8.60333 0.105966 8.65471 0.0775027 8.71155C0.0490396 8.76838 0.0343564 8.8295 0.0343564 8.89136C0.0343564 8.95321 0.0490396 9.01433 0.0775027 9.07117C0.105966 9.128 0.147613 9.17938 0.199917 9.22196Z" fill="#FF9B21"/>
</svg>
