<svg width="18" height="18" viewBox="0 0 18 18" fill="none" xmlns="http://www.w3.org/2000/svg">
<path d="M13.4926 1.19699C12.736 1.11673 11.9757 1.07768 11.2148 1.07999C8.6926 1.07999 7.1251 2.68649 7.1251 5.27249V7.02824H5.00635C4.90689 7.02824 4.81151 7.06775 4.74118 7.13808C4.67086 7.2084 4.63135 7.30379 4.63135 7.40324V10.2907C4.63135 10.3902 4.67086 10.4856 4.74118 10.5559C4.81151 10.6262 4.90689 10.6657 5.00635 10.6657H7.1251V16.4557C7.1251 16.5552 7.16461 16.6506 7.23493 16.7209C7.30526 16.7912 7.40064 16.8307 7.5001 16.8307H10.4836C10.5831 16.8307 10.6784 16.7912 10.7488 16.7209C10.8191 16.6506 10.8586 16.5552 10.8586 16.4557V10.6657H12.9706C13.0616 10.6658 13.1496 10.6327 13.218 10.5727C13.2865 10.5126 13.3308 10.4298 13.3426 10.3395L13.7153 7.45199C13.7223 7.39907 13.7178 7.34527 13.7023 7.2942C13.6868 7.24313 13.6606 7.19596 13.6253 7.15584C13.5901 7.11573 13.5468 7.0836 13.4981 7.06159C13.4495 7.03959 13.3967 7.02822 13.3433 7.02824H10.8586V5.55899C10.8586 4.83149 11.0048 4.52774 11.9146 4.52774H13.4438C13.5433 4.52774 13.6387 4.48823 13.709 4.41791C13.7793 4.34758 13.8188 4.2522 13.8188 4.15274V1.56899C13.8189 1.47795 13.7858 1.39 13.7258 1.32155C13.6658 1.2531 13.5829 1.20883 13.4926 1.19699ZM13.0688 3.77699L11.9138 3.77774C10.2961 3.77774 10.1086 4.79474 10.1086 5.55899V7.40399C10.1086 7.50332 10.148 7.59859 10.2182 7.66889C10.2883 7.7392 10.3835 7.77879 10.4828 7.77899H12.9173L12.6406 9.91649H10.4836C10.3841 9.91649 10.2888 9.956 10.2184 10.0263C10.1481 10.0967 10.1086 10.192 10.1086 10.2915V16.08H7.8751V10.2915C7.8751 10.192 7.83559 10.0967 7.76526 10.0263C7.69494 9.956 7.59955 9.91649 7.5001 9.91649H5.3821V7.77899H7.5001C7.59955 7.77899 7.69494 7.73948 7.76526 7.66916C7.83559 7.59883 7.8751 7.50345 7.8751 7.40399V5.27249C7.8751 3.11699 9.12385 1.82999 11.2148 1.82999C11.9716 1.82999 12.6548 1.87124 13.0688 1.90724V3.77699Z" fill="white"/>
</svg>
