<svg width="18" height="18" viewBox="0 0 18 18" fill="none" xmlns="http://www.w3.org/2000/svg">
<path d="M13.4926 1.19693C12.736 1.11667 11.9757 1.07762 11.2148 1.07993C8.6926 1.07993 7.1251 2.68643 7.1251 5.27243V7.02818H5.00635C4.90689 7.02818 4.81151 7.06769 4.74118 7.13802C4.67086 7.20834 4.63135 7.30372 4.63135 7.40318V10.2907C4.63135 10.3901 4.67086 10.4855 4.74118 10.5558C4.81151 10.6262 4.90689 10.6657 5.00635 10.6657H7.1251V16.4557C7.1251 16.5551 7.16461 16.6505 7.23493 16.7208C7.30526 16.7912 7.40064 16.8307 7.5001 16.8307H10.4836C10.5831 16.8307 10.6784 16.7912 10.7488 16.7208C10.8191 16.6505 10.8586 16.5551 10.8586 16.4557V10.6657H12.9706C13.0616 10.6657 13.1496 10.6326 13.218 10.5726C13.2865 10.5126 13.3308 10.4297 13.3426 10.3394L13.7153 7.45193C13.7223 7.39901 13.7178 7.34521 13.7023 7.29414C13.6868 7.24307 13.6606 7.1959 13.6253 7.15578C13.5901 7.11567 13.5468 7.08354 13.4981 7.06153C13.4495 7.03952 13.3967 7.02816 13.3433 7.02818H10.8586V5.55893C10.8586 4.83143 11.0048 4.52768 11.9146 4.52768H13.4438C13.5433 4.52768 13.6387 4.48817 13.709 4.41785C13.7793 4.34752 13.8188 4.25214 13.8188 4.15268V1.56893C13.8189 1.47789 13.7858 1.38994 13.7258 1.32149C13.6658 1.25304 13.5829 1.20877 13.4926 1.19693V1.19693ZM13.0688 3.77693L11.9138 3.77768C10.2961 3.77768 10.1086 4.79468 10.1086 5.55893V7.40393C10.1086 7.50326 10.148 7.59853 10.2182 7.66883C10.2883 7.73914 10.3835 7.77873 10.4828 7.77893H12.9173L12.6406 9.91643H10.4836C10.3841 9.91643 10.2888 9.95594 10.2184 10.0263C10.1481 10.0966 10.1086 10.192 10.1086 10.2914V16.0799H7.8751V10.2914C7.8751 10.192 7.83559 10.0966 7.76526 10.0263C7.69494 9.95594 7.59955 9.91643 7.5001 9.91643H5.3821V7.77893H7.5001C7.59955 7.77893 7.69494 7.73942 7.76526 7.6691C7.83559 7.59877 7.8751 7.50339 7.8751 7.40393V5.27243C7.8751 3.11693 9.12385 1.82993 11.2148 1.82993C11.9716 1.82993 12.6548 1.87118 13.0688 1.90718V3.77693V3.77693Z" fill="#2F4858"/>
</svg>
