<svg width="20" height="20" viewBox="0 0 20 20" fill="none" xmlns="http://www.w3.org/2000/svg">
<path d="M17.4165 1.66675H2.58317C2.34006 1.66675 2.1069 1.76333 1.93499 1.93523C1.76308 2.10714 1.6665 2.3403 1.6665 2.58341V17.4167C1.6665 17.5371 1.69021 17.6563 1.73628 17.7675C1.78235 17.8788 1.84987 17.9798 1.93499 18.0649C2.02011 18.1501 2.12116 18.2176 2.23238 18.2636C2.34359 18.3097 2.46279 18.3334 2.58317 18.3334H10.5665V11.8751H8.39984V9.37508H10.5665V7.50008C10.5216 7.05988 10.5736 6.61519 10.7188 6.1972C10.8639 5.7792 11.0988 5.39804 11.4069 5.08042C11.715 4.76281 12.0888 4.51645 12.5022 4.35861C12.9156 4.20078 13.3585 4.13529 13.7998 4.16675C14.4484 4.16276 15.0967 4.19615 15.7415 4.26675V6.51675H14.4165C13.3665 6.51675 13.1665 7.01675 13.1665 7.74175V9.35008H15.6665L15.3415 11.8501H13.1665V18.3334H17.4165C17.5369 18.3334 17.6561 18.3097 17.7673 18.2636C17.8785 18.2176 17.9796 18.1501 18.0647 18.0649C18.1498 17.9798 18.2173 17.8788 18.2634 17.7675C18.3095 17.6563 18.3332 17.5371 18.3332 17.4167V2.58341C18.3332 2.46304 18.3095 2.34384 18.2634 2.23262C18.2173 2.12141 18.1498 2.02035 18.0647 1.93523C17.9796 1.85011 17.8785 1.78259 17.7673 1.73653C17.6561 1.69046 17.5369 1.66675 17.4165 1.66675Z" fill="white"/>
</svg>
