<svg width="20" height="20" viewBox="0 0 20 20" fill="none" xmlns="http://www.w3.org/2000/svg">
<path d="M17.5754 1.12158H2.23478C1.50018 1.12158 0.904785 1.69878 0.904785 2.41118V17.8314C0.904785 18.5438 1.50038 19.1216 2.23478 19.1216H17.5754C18.31 19.1216 18.9046 18.5436 18.9046 17.8314V2.41118C18.9046 1.69898 18.31 1.12158 17.5754 1.12158ZM6.36178 16.1888H3.64218V8.06198H6.36178V16.1888ZM5.00218 6.95178H4.98398C4.07198 6.95178 3.48078 6.32798 3.48078 5.54718C3.48078 4.75058 4.08938 4.14378 5.01938 4.14378C5.94958 4.14378 6.52178 4.75038 6.53978 5.54718C6.53978 6.32818 5.94978 6.95178 5.00218 6.95178ZM16.1654 16.1888H13.4466V11.8408C13.4466 10.748 13.0526 10.0026 12.0694 10.0026C11.3172 10.0026 10.8708 10.5056 10.6748 10.991C10.602 11.1646 10.5842 11.407 10.5842 11.6494V16.1886H7.86578C7.86578 16.1886 7.90138 8.82398 7.86578 8.06178H10.5844V9.21398C10.9454 8.66038 11.5902 7.87058 13.0342 7.87058C14.8236 7.87058 16.1654 9.03138 16.1654 11.5288V16.1888ZM10.5668 9.23978C10.5716 9.23218 10.578 9.22298 10.5844 9.21418V9.23978H10.5668Z" fill="white"/>
</svg>
