<svg width="15" height="15" viewBox="0 0 15 15" fill="none" xmlns="http://www.w3.org/2000/svg">
<path d="M10.3457 10.5919C10.262 10.5919 10.1788 10.5582 10.1188 10.4938L7.49447 7.71441C7.3801 7.59378 7.3801 7.40566 7.49447 7.28503L10.1188 4.50566C10.2163 4.40128 10.3738 4.37691 10.4976 4.44753L13.6001 6.17878C14.0782 6.44691 14.3751 6.95316 14.3751 7.50003C14.3751 8.04691 14.0782 8.55316 13.6007 8.82066L10.4976 10.5519C10.4501 10.5788 10.3976 10.5919 10.3457 10.5919ZM8.15072 7.50003L10.4057 9.88753L13.2957 8.27503C13.5757 8.11816 13.7501 7.82128 13.7501 7.50003C13.7501 7.17878 13.5757 6.88191 13.2951 6.72441L10.4057 5.11253L8.15072 7.50003Z" fill="white"/>
<path d="M1.2775 14.635C1.19437 14.635 1.11437 14.6018 1.05625 14.5431C0.778125 14.2637 0.625 13.8893 0.625 13.4894V1.5106C0.625 1.1106 0.778125 0.736851 1.05562 0.457476C1.11437 0.398726 1.19437 0.365601 1.27687 0.365601H1.28125C1.36562 0.366851 1.44625 0.401851 1.50375 0.463726L7.9475 7.28622C8.06187 7.40685 8.06187 7.59497 7.9475 7.7156L1.50437 14.5368C1.44625 14.5987 1.36562 14.6337 1.28187 14.635C1.28062 14.635 1.27875 14.635 1.2775 14.635ZM1.31562 1.1731C1.2725 1.2781 1.25 1.39248 1.25 1.5106V13.49C1.25 13.6081 1.2725 13.7225 1.31562 13.8268L7.29125 7.49997L1.31562 1.1731Z" fill="white"/>
<path d="M2.13076 15C1.72201 15 1.32826 14.8313 1.05014 14.5369C0.935762 14.4163 0.935762 14.2281 1.05014 14.1075L7.49389 7.28501C7.55264 7.22251 7.63514 7.18689 7.72076 7.18689C7.80701 7.18689 7.88951 7.22251 7.94764 7.28501L10.572 10.0644C10.6383 10.1344 10.6683 10.2313 10.6539 10.3263C10.6395 10.4213 10.5814 10.5044 10.497 10.5513L2.86139 14.8106C2.63826 14.935 2.38514 15 2.13076 15ZM1.74264 14.285C1.99014 14.4088 2.30451 14.405 2.55826 14.2644L9.84264 10.2019L7.72076 7.95501L1.74264 14.285Z" fill="white"/>
<path d="M7.72125 7.81246C7.635 7.81246 7.55313 7.77683 7.49438 7.71433L1.05063 0.892455C0.93625 0.772455 0.93625 0.583705 1.05063 0.46308C1.50188 -0.0144202 2.28063 -0.13317 2.86063 0.18933L10.4975 4.44808C10.5819 4.49496 10.64 4.57808 10.6544 4.67308C10.6688 4.7687 10.6394 4.86495 10.5725 4.93495L7.94813 7.71433C7.88938 7.77683 7.80688 7.81246 7.72125 7.81246ZM1.7425 0.714955L7.72063 7.04496L9.8425 4.79808L2.5575 0.734955C2.305 0.59558 1.99063 0.59183 1.7425 0.714955Z" fill="white"/>
</svg>
