<svg width="16" height="16" viewBox="0 0 16 16" fill="none" xmlns="http://www.w3.org/2000/svg">
<path d="M15.1111 1.77778H8.88889V0.888889C8.88889 0.653141 8.79524 0.427048 8.62854 0.260349C8.46184 0.0936505 8.23575 0 8 0C7.76425 0 7.53816 0.0936505 7.37146 0.260349C7.20476 0.427048 7.11111 0.653141 7.11111 0.888889V1.77778H0.888889C0.653141 1.77778 0.427048 1.87143 0.260349 2.03813C0.0936505 2.20483 0 2.43092 0 2.66667C0 2.90241 0.0936505 3.12851 0.260349 3.29521C0.427048 3.4619 0.653141 3.55556 0.888889 3.55556H11.4508C11.0511 6.22012 9.82607 8.6923 7.94797 10.6242C6.64724 9.28955 5.65308 7.68736 5.03472 5.92925C4.95678 5.70693 4.7938 5.52464 4.58156 5.4224C4.36931 5.32016 4.12517 5.30633 3.90274 5.38396C3.68032 5.46159 3.4978 5.62433 3.39526 5.83643C3.29273 6.04853 3.27858 6.29266 3.3559 6.51519C4.05262 8.49536 5.16842 10.3019 6.62712 11.8114C5.12288 12.998 3.36985 13.8291 1.49912 14.2426C1.28514 14.2896 1.09603 14.4139 0.968074 14.5917C0.840118 14.7695 0.782324 14.9883 0.805779 15.2062C0.829235 15.424 0.932288 15.6255 1.09517 15.772C1.25805 15.9185 1.46929 15.9997 1.68836 16C1.75257 16 1.81659 15.9931 1.87934 15.9796C4.10742 15.4881 6.18791 14.4773 7.95134 13.0295C9.7192 14.4761 11.8025 15.4866 14.033 15.9796C14.2626 16.0279 14.502 15.9834 14.699 15.8559C14.896 15.7284 15.0346 15.5282 15.0845 15.299C15.1345 15.0697 15.0918 14.83 14.9657 14.6321C14.8396 14.4342 14.6404 14.2942 14.4115 14.2426C12.5353 13.8297 10.7763 12.9993 9.26519 11.8131C11.4383 9.55621 12.8306 6.66205 13.2376 3.55556H15.1111C15.3469 3.55556 15.573 3.4619 15.7397 3.29521C15.9064 3.12851 16 2.90241 16 2.66667C16 2.43092 15.9064 2.20483 15.7397 2.03813C15.573 1.87143 15.3469 1.77778 15.1111 1.77778Z" fill="white"/>
</svg>
