<svg width="16" height="14" viewBox="0 0 16 14" fill="none" xmlns="http://www.w3.org/2000/svg">
<path d="M13.75 13.965H2.25C2.02019 13.965 1.79262 13.9197 1.5803 13.8318C1.36798 13.7438 1.17507 13.6149 1.01256 13.4524C0.850061 13.2899 0.721157 13.097 0.633211 12.8847C0.545265 12.6724 0.5 12.4448 0.5 12.215V3.46L8 0.0350037L15.5 3.46V12.215C15.5 12.6791 15.3156 13.1243 14.9874 13.4524C14.6592 13.7806 14.2141 13.965 13.75 13.965ZM1.5 4.1V12.215C1.5 12.4139 1.57902 12.6047 1.71967 12.7453C1.86032 12.886 2.05109 12.965 2.25 12.965H13.75C13.9489 12.965 14.1397 12.886 14.2803 12.7453C14.421 12.6047 14.5 12.4139 14.5 12.215V4.1L8 1.135L1.5 4.1Z" fill="white"/>
<path d="M8 7.99999C7.61062 8.00003 7.22799 7.89834 6.89 7.70499L0.75 4.20499L1.25 3.33499L7.39 6.83499C7.57671 6.94106 7.78776 6.99683 8.0025 6.99683C8.21723 6.99683 8.42829 6.94106 8.615 6.83499L14.755 3.33499L15.255 4.20499L9.115 7.70499C8.77554 7.89918 8.39108 8.0009 8 7.99999Z" fill="white"/>
<path d="M8.0424 11.2746C8.59423 11.2522 9.02337 10.7866 9.00092 10.2348C8.97846 9.68296 8.51292 9.25382 7.96109 9.27627C7.40926 9.29872 6.98012 9.76427 7.00257 10.3161C7.02502 10.8679 7.49057 11.2971 8.0424 11.2746Z" fill="white"/>
</svg>
