<svg width="16" height="16" viewBox="0 0 16 16" fill="none" xmlns="http://www.w3.org/2000/svg">
<path d="M13.654 10.3245L12.554 9.2245C12.2261 8.89924 11.7835 8.71585 11.3216 8.71389C10.8598 8.71192 10.4156 8.89154 10.085 9.214C9.90855 9.39145 9.67579 9.50185 9.42675 9.52621C9.17771 9.55058 8.92796 9.48738 8.72048 9.3475C7.90158 8.80099 7.19808 8.09885 6.64998 7.281C6.51256 7.07121 6.45166 6.82047 6.47752 6.57101C6.50339 6.32156 6.61444 6.08864 6.79198 5.9115C7.11153 5.58054 7.28883 5.13764 7.28593 4.6776C7.28303 4.21755 7.10017 3.77692 6.77648 3.45L5.67648 2.35C5.34716 2.02181 4.90117 1.83752 4.43623 1.83752C3.97129 1.83752 3.52531 2.02181 3.19598 2.35L2.87948 2.667C1.22948 4.317 1.35298 7.78601 4.78598 11.217C6.85598 13.2875 8.93948 14.1545 10.629 14.1545C11.1263 14.1711 11.622 14.0885 12.0871 13.9116C12.5522 13.7346 12.9774 13.4669 13.338 13.124L13.655 12.807C13.9838 12.4775 14.1684 12.031 14.1682 11.5655C14.168 11.1001 13.983 10.6537 13.654 10.3245ZM12.947 12.1L12.63 12.417C11.33 13.717 8.46048 13.4795 5.49198 10.5105C2.52348 7.5415 2.28548 4.67 3.58548 3.37L3.89998 3.0535C4.04159 2.91241 4.23334 2.83319 4.43323 2.83319C4.63313 2.83319 4.82488 2.91241 4.96648 3.0535L6.06648 4.1535C6.20551 4.29323 6.28443 4.48176 6.28639 4.67887C6.28835 4.87597 6.2132 5.06604 6.07698 5.2085C5.73912 5.54852 5.52837 5.99432 5.48003 6.47121C5.4317 6.9481 5.54871 7.42711 5.81148 7.828C6.43426 8.75996 7.2351 9.55962 8.16798 10.181C8.56767 10.4438 9.04543 10.5615 9.52146 10.5145C9.99749 10.4674 10.443 10.2585 10.7835 9.9225C10.9257 9.78467 11.1163 9.70813 11.3143 9.70935C11.5123 9.71056 11.702 9.78943 11.8425 9.929L12.9425 11.029C13.0134 11.0989 13.0698 11.1821 13.1084 11.2738C13.147 11.3656 13.1671 11.464 13.1675 11.5636C13.1679 11.6631 13.1487 11.7617 13.1108 11.8538C13.073 11.9459 13.0173 12.0295 12.947 12.1Z" fill="white"/>
</svg>
