<svg width="30" height="30" viewBox="0 0 30 30" fill="none" xmlns="http://www.w3.org/2000/svg">
<path d="M23.9999 10.5C23.9999 5.5293 19.9706 1.5 14.9999 1.5C10.0292 1.5 5.99994 5.5293 5.99994 10.5C5.99994 12.7236 6.80814 14.7576 8.14464 16.3281L3.99414 25.2288L8.02674 25.4541L10.7915 28.3983L14.9417 19.4985C14.9609 19.4985 14.9804 19.5 14.9999 19.5C15.0194 19.5 15.0389 19.4985 15.0584 19.4985L19.2086 28.3983L21.9734 25.4541L26.006 25.2288L21.8552 16.3281C23.1917 14.7576 23.9999 12.7236 23.9999 10.5ZM10.3682 25.7565L8.70954 23.9898L6.29004 23.8545L9.27804 17.4468C10.4315 18.3981 11.8268 19.065 13.3568 19.3473L10.3682 25.7565ZM14.9999 17.25C11.2778 17.25 8.24994 14.2221 8.24994 10.5C8.24994 6.7779 11.2778 3.75 14.9999 3.75C18.722 3.75 21.7499 6.7779 21.7499 10.5C21.7499 14.2221 18.722 17.25 14.9999 17.25ZM23.7098 23.8548L21.2903 23.9901L19.6316 25.7568L16.643 19.3479C18.173 19.0656 19.5683 18.3984 20.7218 17.4474L23.7098 23.8548Z" fill="#21B44E"/>
</svg>
