<svg width="18" height="16" viewBox="0 0 18 16" fill="none" xmlns="http://www.w3.org/2000/svg">
<path d="M8.86634 6.04059H8.72234H8.52691C6.58318 5.85695 4.72659 5.14561 3.15777 3.98344C2.5001 3.48403 1.89832 2.91501 1.36291 2.2863C1.30584 2.22214 1.26197 2.14737 1.2338 2.06625C1.20563 1.98514 1.19371 1.89927 1.19872 1.81354C1.20885 1.64042 1.28734 1.47841 1.41691 1.36316C1.54649 1.2479 1.71655 1.18884 1.88967 1.19897C2.06279 1.2091 2.2248 1.28758 2.34006 1.41716C2.81152 1.97418 3.3427 2.47777 3.92406 2.91887C5.20618 3.87408 6.71074 4.48653 8.29548 4.6983C8.27996 3.68595 8.64732 2.70509 9.32406 1.95201C9.72831 1.48779 10.2316 1.12019 10.7968 0.876315C11.362 0.632435 11.9747 0.518488 12.5898 0.542872C13.5631 0.572508 14.4922 0.95656 15.2023 1.62287C15.2237 1.63905 15.2427 1.65809 15.2589 1.67944C15.4081 1.84401 15.9686 2.34287 16.8378 1.67944C16.9742 1.57578 17.1462 1.53055 17.3159 1.5537C17.4857 1.57684 17.6393 1.66647 17.7429 1.80287C17.8466 1.93927 17.8918 2.11126 17.8687 2.28101C17.8455 2.45075 17.7559 2.60435 17.6195 2.70801C17.1568 3.12025 16.5511 3.33494 15.932 3.3061C15.313 3.27726 14.7299 3.0072 14.3075 2.55373C13.8223 2.10812 13.1918 1.85406 12.5332 1.83887C12.1105 1.82445 11.6898 1.90365 11.3013 2.0708C10.9128 2.23794 10.566 2.48891 10.2858 2.80573C10.0125 3.11383 9.81227 3.47965 9.70007 3.87591C9.58786 4.27218 9.56657 4.68866 9.63777 5.0943C9.66685 5.22113 9.66423 5.35317 9.63014 5.47875C9.59606 5.60433 9.53156 5.71958 9.44234 5.8143C9.36833 5.89133 9.27854 5.95143 9.17911 5.99049C9.07969 6.02955 8.97299 6.04664 8.86634 6.04059ZM5.99148 15.4572C4.10353 15.4397 2.25346 14.9253 0.627485 13.9657C0.434725 13.8762 0.279869 13.7213 0.190342 13.5286C0.141753 13.427 0.120933 13.3143 0.13 13.2021C0.139067 13.0898 0.177696 12.982 0.24196 12.8895C0.306225 12.797 0.393832 12.7232 0.495874 12.6756C0.597916 12.628 0.710754 12.6082 0.822913 12.6183C1.97806 12.7265 3.14139 12.5297 4.19663 12.0474C3.54052 11.7953 2.96231 11.3749 2.52006 10.8286C2.41776 10.6922 2.37383 10.5207 2.39795 10.352C2.42206 10.1832 2.51223 10.0309 2.64863 9.92859C2.78502 9.82629 2.95647 9.78236 3.12526 9.80648C3.29404 9.83059 3.44633 9.92076 3.54863 10.0572C4.06291 10.7412 5.39491 11.132 5.86291 11.1783C5.99254 11.1916 6.11506 11.2439 6.21426 11.3284C6.31345 11.4129 6.38462 11.5256 6.41834 11.6514C6.46006 11.782 6.45857 11.9226 6.41411 12.0523C6.36964 12.182 6.28456 12.2939 6.17148 12.3714C5.30279 13.0267 4.3084 13.4958 3.25034 13.7497C5.19117 14.3573 7.27761 14.3121 9.19034 13.6212C10.9771 12.9965 12.5226 11.8264 13.6087 10.2762C14.6947 8.72599 15.2666 6.87384 15.2435 4.98116C15.2421 4.89655 15.2576 4.81252 15.289 4.73395C15.3205 4.65539 15.3672 4.58387 15.4266 4.52356C15.4859 4.46325 15.5567 4.41535 15.6348 4.38267C15.7128 4.34998 15.7966 4.33315 15.8812 4.33316C16.0513 4.3345 16.214 4.40266 16.3343 4.52293C16.4546 4.6432 16.5227 4.80593 16.5241 4.97601C16.5455 7.13268 15.8909 9.24189 14.6521 11.0074C13.4133 12.7729 11.6525 14.106 9.6172 14.8194C8.45202 15.2303 7.22694 15.4458 5.99148 15.4572ZM1.2292 6.74516C1.61418 7.17654 2.0677 7.54144 2.57148 7.82516C3.10651 8.1916 3.73384 8.40011 4.38177 8.42687C4.55103 8.42295 4.71228 8.35396 4.832 8.23424C4.95172 8.11452 5.0207 7.95328 5.02463 7.78401C5.02328 7.61393 4.95512 7.4512 4.83485 7.33093C4.71458 7.21066 4.55185 7.1425 4.38177 7.14116H4.19663C4.08863 7.14116 4.19663 7.14116 4.22748 7.14116C4.25834 7.14116 4.1452 7.14116 4.12977 7.14116L3.94977 7.08973C3.90863 7.08973 3.79034 7.05373 3.76977 7.02287C3.7492 6.99201 3.87263 7.06916 3.76977 7.02287L3.68234 6.98173L3.51263 6.8943L3.18863 6.7143L2.88006 6.51887L2.72577 6.41601L2.65377 6.35944C2.46679 6.20431 2.29462 6.03214 2.13948 5.84516C2.01822 5.7255 1.85471 5.6584 1.68434 5.6584C1.51398 5.6584 1.35046 5.7255 1.2292 5.84516C1.11195 5.96768 1.0465 6.13072 1.0465 6.3003C1.0465 6.46988 1.11195 6.63292 1.2292 6.75544V6.74516Z" fill="white"/>
</svg>
