<svg width="18" height="18" viewBox="0 0 18 18" fill="none" xmlns="http://www.w3.org/2000/svg">
<path d="M8.86634 7.04049H8.72234H8.52691C6.58318 6.85686 4.72659 6.14552 3.15777 4.98335C2.5001 4.48394 1.89832 3.91492 1.36291 3.28621C1.30584 3.22205 1.26197 3.14728 1.2338 3.06616C1.20563 2.98505 1.19371 2.89918 1.19872 2.81345C1.20885 2.64033 1.28734 2.47832 1.41691 2.36307C1.54649 2.24781 1.71655 2.18875 1.88967 2.19888C2.06279 2.209 2.2248 2.28749 2.34006 2.41707C2.81152 2.97409 3.3427 3.47768 3.92406 3.91878C5.20618 4.87399 6.71074 5.48644 8.29548 5.69821C8.27996 4.68586 8.64732 3.705 9.32406 2.95192C9.72831 2.4877 10.2316 2.1201 10.7968 1.87622C11.362 1.63234 11.9747 1.5184 12.5898 1.54278C13.5631 1.57242 14.4922 1.95647 15.2023 2.62278C15.2237 2.63896 15.2427 2.658 15.2589 2.67935C15.4081 2.84392 15.9686 3.34278 16.8378 2.67935C16.9742 2.57569 17.1462 2.53046 17.3159 2.5536C17.4857 2.57675 17.6393 2.66638 17.7429 2.80278C17.8466 2.93918 17.8918 3.11117 17.8687 3.28091C17.8455 3.45066 17.7559 3.60426 17.6195 3.70792C17.1568 4.12016 16.5511 4.33484 15.932 4.30601C15.313 4.27717 14.7299 4.0071 14.3075 3.55364C13.8223 3.10803 13.1918 2.85397 12.5332 2.83878C12.1105 2.82436 11.6898 2.90356 11.3013 3.07071C10.9128 3.23785 10.566 3.48882 10.2858 3.80564C10.0125 4.11374 9.81227 4.47956 9.70007 4.87582C9.58786 5.27209 9.56657 5.68857 9.63777 6.09421C9.66685 6.22104 9.66423 6.35308 9.63014 6.47866C9.59606 6.60424 9.53156 6.71948 9.44234 6.81421C9.36833 6.89124 9.27853 6.95134 9.17911 6.9904C9.07969 7.02946 8.97299 7.04655 8.86634 7.04049ZM5.99148 16.4571C4.10353 16.4397 2.25346 15.9253 0.627485 14.9656C0.434725 14.8761 0.279869 14.7213 0.190342 14.5285C0.141753 14.4269 0.120933 14.3143 0.13 14.202C0.139067 14.0898 0.177696 13.9819 0.24196 13.8894C0.306225 13.797 0.393832 13.7231 0.495874 13.6755C0.597916 13.6279 0.710753 13.6081 0.822913 13.6182C1.97806 13.7264 3.14139 13.5296 4.19663 13.0474C3.54052 12.7952 2.96231 12.3748 2.52006 11.8285C2.41776 11.6921 2.37383 11.5206 2.39795 11.3519C2.42206 11.1831 2.51223 11.0308 2.64863 10.9285C2.78502 10.8262 2.95647 10.7823 3.12526 10.8064C3.29404 10.8305 3.44633 10.9207 3.54863 11.0571C4.06291 11.7411 5.39491 12.1319 5.86291 12.1782C5.99254 12.1915 6.11506 12.2438 6.21426 12.3283C6.31345 12.4128 6.38462 12.5255 6.41834 12.6514C6.46006 12.782 6.45857 12.9225 6.41411 13.0522C6.36964 13.1819 6.28456 13.2938 6.17148 13.3714C5.30279 14.0266 4.3084 14.4957 3.25034 14.7496C5.19117 15.3572 7.27761 15.312 9.19034 14.6211C10.9771 13.9964 12.5226 12.8263 13.6087 11.2761C14.6947 9.7259 15.2666 7.87375 15.2435 5.98107C15.2421 5.89646 15.2576 5.81243 15.289 5.73386C15.3205 5.6553 15.3672 5.58378 15.4266 5.52347C15.4859 5.46316 15.5567 5.41526 15.6348 5.38257C15.7128 5.34988 15.7966 5.33305 15.8812 5.33307C16.0513 5.33441 16.214 5.40257 16.3343 5.52284C16.4546 5.64311 16.5227 5.80584 16.5241 5.97592C16.5455 8.13258 15.8909 10.2418 14.6521 12.0073C13.4133 13.7728 11.6525 15.1059 9.6172 15.8194C8.45202 16.2302 7.22694 16.4457 5.99148 16.4571ZM1.2292 7.74507C1.61418 8.17644 2.0677 8.54134 2.57148 8.82507C3.10651 9.1915 3.73384 9.40002 4.38177 9.42678C4.55103 9.42286 4.71228 9.35387 4.832 9.23415C4.95172 9.11443 5.0207 8.95319 5.02463 8.78392C5.02328 8.61384 4.95512 8.45111 4.83485 8.33084C4.71458 8.21057 4.55185 8.14241 4.38177 8.14107H4.19663C4.08863 8.14107 4.19663 8.14107 4.22748 8.14107C4.25834 8.14107 4.1452 8.14107 4.12977 8.14107L3.94977 8.08964C3.90863 8.08964 3.79034 8.05364 3.76977 8.02278C3.87263 8.06907 3.7492 7.99192 3.76977 8.02278L3.68234 7.98164L3.51263 7.89421L3.18863 7.71421L2.88006 7.51878L2.72577 7.41592L2.65377 7.35935C2.46679 7.20421 2.29462 7.03205 2.13948 6.84507C2.01822 6.7254 1.85471 6.65831 1.68434 6.65831C1.51398 6.65831 1.35046 6.7254 1.2292 6.84507C1.11195 6.96758 1.0465 7.13062 1.0465 7.30021C1.0465 7.46979 1.11195 7.63283 1.2292 7.75535V7.74507Z" fill="#2F4858"/>
</svg>
