<svg width="350" height="350" viewBox="0 0 350 350" fill="none" xmlns="http://www.w3.org/2000/svg">
<path d="M36.9131 126.525L118.335 124.938V70.3266L91.3264 69.7316C91.3264 69.7316 91.6181 52.7449 83.7781 51.8583C75.9381 50.9716 62.6264 63.3733 62.9998 65.4616C63.3731 67.5499 47.2148 69.9299 46.8181 69.9299C46.4214 69.9299 38.0798 70.7233 38.0798 70.7233L36.9131 126.525Z" fill="#21B44E"/>
<path d="M222.833 124.133L307.778 122.5V73.3017L263.888 30.9983L252.665 44.205C252.665 44.205 252.968 31.3016 247.508 30.9983C242.048 30.695 231.723 34.1833 231.723 34.1833L230.335 64.5166L222.833 72.6833V124.133Z" fill="#21B44E"/>
<path d="M189.816 232.167C189.816 232.167 214.445 237.137 219.601 254.205C224.758 271.273 209.475 290.5 209.475 290.5L205.975 301.817H192.605C192.605 301.817 192.605 293.288 186.643 294.677C180.681 296.065 153.276 294.677 153.276 294.677C153.276 294.677 152.11 301.42 146.533 301.817C142.231 302.045 137.92 302.045 133.618 301.817C133.618 301.817 133.921 292.285 129.5 288.517C125.078 284.748 120.166 275.415 120.166 275.415L110.833 273.023V256.165H121.905C121.905 256.165 125.475 244.078 134.015 239.318C139.613 236.282 145.534 233.883 151.666 232.167C151.666 232.167 156.555 209.732 165.666 208.728C174.778 207.725 196.466 210.863 189.816 232.167Z" fill="#21B44E"/>
<path d="M129.5 162.82H120.167V172.153H129.5V162.82Z" fill="#2F4858"/>
<path d="M148.166 162.82H138.833V172.153H148.166V162.82Z" fill="#2F4858"/>
<path d="M110.833 162.82H101.5V172.153H110.833V162.82Z" fill="#2F4858"/>
<path d="M222.833 162.82H213.5V172.153H222.833V162.82Z" fill="#2F4858"/>
<path d="M241.5 162.82H232.167V172.153H241.5V162.82Z" fill="#2F4858"/>
<path d="M204.166 162.82H194.833V172.153H204.166V162.82Z" fill="#2F4858"/>
<path d="M36.1667 130.153H120.167C121.404 130.153 122.591 129.662 123.466 128.786C124.342 127.911 124.833 126.724 124.833 125.487V69.4867C124.833 68.249 124.342 67.062 123.466 66.1868C122.591 65.3116 121.404 64.82 120.167 64.82H96.8333C96.8333 59.8693 94.8667 55.1213 91.366 51.6207C87.8653 48.12 83.1174 46.1533 78.1667 46.1533C73.216 46.1533 68.468 48.12 64.9673 51.6207C61.4667 55.1213 59.5 59.8693 59.5 64.82H36.1667C34.929 64.82 33.742 65.3116 32.8668 66.1868C31.9917 67.062 31.5 68.249 31.5 69.4867V125.487C31.5 126.724 31.9917 127.911 32.8668 128.786C33.742 129.662 34.929 130.153 36.1667 130.153ZM78.1667 55.4867C80.642 55.4867 83.016 56.47 84.7663 58.2203C86.5167 59.9707 87.5 62.3446 87.5 64.82H68.8333C68.8333 62.3446 69.8167 59.9707 71.567 58.2203C73.3173 56.47 75.6913 55.4867 78.1667 55.4867ZM40.8333 74.1533H115.5V92.82H92.1667V88.1533C92.1667 86.9156 91.675 85.7287 90.7998 84.8535C89.9247 83.9783 88.7377 83.4866 87.5 83.4866H68.8333C67.5957 83.4866 66.4087 83.9783 65.5335 84.8535C64.6583 85.7287 64.1667 86.9156 64.1667 88.1533V92.82H40.8333V74.1533ZM82.8333 92.82V102.153H73.5V92.82H82.8333ZM40.8333 102.153H64.1667V106.82C64.1667 108.058 64.6583 109.245 65.5335 110.12C66.4087 110.995 67.5957 111.487 68.8333 111.487H87.5C88.7377 111.487 89.9247 110.995 90.7998 110.12C91.675 109.245 92.1667 108.058 92.1667 106.82V102.153H115.5V120.82H40.8333V102.153Z" fill="#2F4858"/>
<path d="M73.5004 139.487V154.35C70.3867 155.451 67.7624 157.617 66.0914 160.466C64.4204 163.314 63.8102 166.662 64.3686 169.917C64.9271 173.172 66.6183 176.125 69.1433 178.253C71.6683 180.382 74.8645 181.549 78.167 181.549C81.4696 181.549 84.6658 180.382 87.1908 178.253C89.7158 176.125 91.4069 173.172 91.9654 169.917C92.5239 166.662 91.9137 163.314 90.2426 160.466C88.5716 157.617 85.9474 155.451 82.8337 154.35V139.487H73.5004ZM78.167 172.153C77.244 172.153 76.3418 171.88 75.5744 171.367C74.8069 170.854 74.2088 170.125 73.8556 169.273C73.5024 168.42 73.41 167.482 73.59 166.576C73.7701 165.671 74.2145 164.839 74.8672 164.187C75.5198 163.534 76.3513 163.09 77.2566 162.91C78.1618 162.73 79.1002 162.822 79.9529 163.175C80.8056 163.528 81.5344 164.127 82.0472 164.894C82.56 165.661 82.8337 166.564 82.8337 167.487C82.8337 168.724 82.342 169.911 81.4669 170.787C80.5917 171.662 79.4047 172.153 78.167 172.153Z" fill="#2F4858"/>
<path d="M176.167 195.487V180.635C179.28 179.534 181.905 177.368 183.576 174.52C185.247 171.671 185.857 168.323 185.298 165.068C184.74 161.813 183.049 158.861 180.524 156.732C177.999 154.603 174.803 153.436 171.5 153.436C168.197 153.436 165.001 154.603 162.476 156.732C159.951 158.861 158.26 161.813 157.702 165.068C157.143 168.323 157.753 171.671 159.424 174.52C161.095 177.368 163.72 179.534 166.833 180.635V195.487H176.167ZM171.5 162.82C172.423 162.82 173.325 163.094 174.093 163.607C174.86 164.119 175.458 164.848 175.811 165.701C176.165 166.554 176.257 167.492 176.077 168.397C175.897 169.302 175.453 170.134 174.8 170.787C174.147 171.439 173.316 171.884 172.41 172.064C171.505 172.244 170.567 172.151 169.714 171.798C168.861 171.445 168.133 170.847 167.62 170.079C167.107 169.312 166.833 168.41 166.833 167.487C166.833 166.249 167.325 165.062 168.2 164.187C169.075 163.312 170.262 162.82 171.5 162.82Z" fill="#2F4858"/>
<path d="M194.74 227.255C194.5 221.246 191.941 215.564 187.602 211.4C183.263 207.237 177.48 204.915 171.466 204.923C165.453 204.93 159.676 207.266 155.347 211.441C151.018 215.615 148.474 221.304 148.249 227.313C141.97 229.184 136.126 232.284 131.056 236.434C125.987 240.584 121.794 245.701 118.72 251.487H110.834C109.596 251.487 108.409 251.978 107.534 252.854C106.659 253.729 106.167 254.916 106.167 256.153V274.82C106.167 276.058 106.659 277.245 107.534 278.12C108.409 278.995 109.596 279.487 110.834 279.487H118.732C121.298 284.795 124.97 289.492 129.5 293.265V302.82C129.5 304.058 129.992 305.245 130.867 306.12C131.742 306.995 132.929 307.487 134.167 307.487H152.834C154.071 307.487 155.258 306.995 156.133 306.12C157.009 305.245 157.5 304.058 157.5 302.82V299.402C166.749 301.175 176.251 301.175 185.5 299.402V302.82C185.5 304.058 185.992 305.245 186.867 306.12C187.742 306.995 188.929 307.487 190.167 307.487H208.834C210.071 307.487 211.258 306.995 212.133 306.12C213.009 305.245 213.5 304.058 213.5 302.82V293.288C217.736 289.97 221.188 285.758 223.608 280.952C226.028 276.146 227.357 270.866 227.5 265.487C227.5 248.745 214.76 233.987 194.74 227.255ZM171.5 214.153C174.269 214.153 176.976 214.974 179.278 216.513C181.581 218.051 183.375 220.238 184.435 222.796C185.494 225.354 185.771 228.169 185.231 230.885C184.691 233.6 183.358 236.095 181.4 238.053C179.442 240.011 176.947 241.344 174.232 241.884C171.516 242.425 168.701 242.147 166.143 241.088C163.585 240.028 161.398 238.234 159.86 235.931C158.321 233.629 157.5 230.922 157.5 228.153C157.5 224.44 158.975 220.879 161.601 218.254C164.226 215.628 167.787 214.153 171.5 214.153ZM205.987 287.362C205.421 287.798 204.962 288.358 204.647 288.999C204.331 289.64 204.167 290.345 204.167 291.06V298.153H194.834V293.487C194.834 292.765 194.667 292.053 194.346 291.407C194.024 290.761 193.558 290.198 192.982 289.763C192.407 289.328 191.738 289.032 191.029 288.899C190.32 288.765 189.59 288.798 188.895 288.995C177.523 292.192 165.489 292.192 154.117 288.995C153.422 288.796 152.69 288.762 151.98 288.894C151.269 289.026 150.599 289.322 150.022 289.757C149.445 290.193 148.977 290.756 148.655 291.404C148.333 292.051 148.166 292.764 148.167 293.487V298.153H138.834V291.048C138.833 290.337 138.67 289.634 138.357 288.995C138.043 288.356 137.588 287.798 137.025 287.362C132.16 283.787 128.416 278.897 126.234 273.268C125.913 272.36 125.32 271.573 124.534 271.015C123.749 270.457 122.81 270.156 121.847 270.153H115.5V260.82H121.847C122.811 260.82 123.751 260.522 124.539 259.966C125.326 259.411 125.922 258.625 126.245 257.717C128.423 252.711 131.658 248.234 135.727 244.596C139.797 240.957 144.606 238.241 149.824 236.635C151.081 239.854 153.047 242.749 155.575 245.105C151.58 246.605 147.935 248.908 144.865 251.872L151.469 258.487C157.03 253.721 164.181 251.222 171.5 251.487C178.82 251.222 185.97 253.721 191.532 258.487L198.135 251.895C195.057 248.931 191.404 246.628 187.402 245.128C189.931 242.766 191.9 239.868 193.165 236.647C208.332 242.247 218.167 253.435 218.167 265.487C217.965 269.826 216.761 274.06 214.647 277.855C212.534 281.651 209.57 284.905 205.987 287.362Z" fill="#2F4858"/>
<path d="M260.166 139.487V154.35C257.053 155.451 254.428 157.617 252.757 160.466C251.086 163.314 250.476 166.662 251.035 169.917C251.593 173.172 253.284 176.125 255.809 178.253C258.334 180.382 261.53 181.549 264.833 181.549C268.136 181.549 271.332 180.382 273.857 178.253C276.382 176.125 278.073 173.172 278.631 169.917C279.19 166.662 278.58 163.314 276.909 160.466C275.238 157.617 272.613 155.451 269.5 154.35V139.487H260.166ZM264.833 172.153C263.91 172.153 263.008 171.88 262.24 171.367C261.473 170.854 260.875 170.125 260.522 169.273C260.168 168.42 260.076 167.482 260.256 166.576C260.436 165.671 260.881 164.839 261.533 164.187C262.186 163.534 263.017 163.09 263.923 162.91C264.828 162.73 265.766 162.822 266.619 163.175C267.472 163.528 268.2 164.127 268.713 164.894C269.226 165.661 269.5 166.564 269.5 167.487C269.5 168.724 269.008 169.911 268.133 170.787C267.258 171.662 266.071 172.153 264.833 172.153Z" fill="#2F4858"/>
<path d="M268.135 28.8517C267.702 28.4178 267.187 28.0736 266.621 27.8388C266.054 27.6039 265.447 27.483 264.834 27.483C264.22 27.483 263.613 27.6039 263.047 27.8388C262.48 28.0736 261.965 28.4178 261.532 28.8517L255.5 34.895V32.1534C255.5 30.9157 255.009 29.7287 254.133 28.8535C253.258 27.9784 252.071 27.4867 250.834 27.4867H232.167C230.929 27.4867 229.742 27.9784 228.867 28.8535C227.992 29.7287 227.5 30.9157 227.5 32.1534V62.895L219.532 70.8517C219.099 71.2854 218.755 71.8002 218.521 72.3668C218.287 72.9333 218.167 73.5404 218.167 74.1534V125.487C218.167 126.724 218.659 127.911 219.534 128.787C220.409 129.662 221.596 130.153 222.834 130.153H306.834C308.071 130.153 309.258 129.662 310.133 128.787C311.009 127.911 311.5 126.724 311.5 125.487V74.1534C311.501 73.5404 311.38 72.9333 311.146 72.3668C310.912 71.8002 310.569 71.2854 310.135 70.8517L268.135 28.8517ZM260.167 120.82H250.834V102.153H260.167V120.82ZM278.834 120.82H269.5V102.153H278.834V120.82ZM302.167 120.82H288.167V97.4867C288.167 96.249 287.675 95.0621 286.8 94.1869C285.925 93.3117 284.738 92.8201 283.5 92.8201H246.167C244.929 92.8201 243.742 93.3117 242.867 94.1869C241.992 95.0621 241.5 96.249 241.5 97.4867V120.82H227.5V76.09L235.469 68.1217C235.902 67.688 236.245 67.1732 236.48 66.6067C236.714 66.0402 236.834 65.4331 236.834 64.82V36.82H246.167V46.1534C246.166 47.0769 246.44 47.9799 246.952 48.748C247.465 49.5161 248.194 50.1148 249.047 50.4683C249.9 50.8218 250.839 50.9142 251.745 50.7338C252.651 50.5535 253.483 50.1084 254.135 49.455L264.834 38.7567L302.167 76.09V120.82Z" fill="#2F4858"/>
</svg>
